<?xml version="1.0" encoding="UTF-8" standalone="no"?>
<!-- Created with Inkscape (http://www.inkscape.org/) -->

<svg
   xmlns:dc="http://purl.org/dc/elements/1.1/"
   xmlns:cc="http://creativecommons.org/ns#"
   xmlns:rdf="http://www.w3.org/1999/02/22-rdf-syntax-ns#"
   xmlns:svg="http://www.w3.org/2000/svg"
   xmlns="http://www.w3.org/2000/svg"
   version="1.1"
   width="90"
   height="90"
   viewBox="0 0 90 90"
   id="Calque_1"
   xml:space="preserve"><metadata
   id="metadata13"><rdf:RDF><cc:Work
       rdf:about=""><dc:format>image/svg+xml</dc:format><dc:type
         rdf:resource="http://purl.org/dc/dcmitype/StillImage" /><dc:title></dc:title></cc:Work></rdf:RDF></metadata><defs
   id="defs11" />
<g
   id="g3">
	<path
   d="M 72.108,68.638 H 16.375 c -3.556,0 -6.441,2.885 -6.441,6.441 0,3.556 2.885,6.441 6.441,6.441 h 55.732 c 3.556,0 6.441,-2.885 6.441,-6.441 0,-3.556 -2.884,-6.441 -6.44,-6.441 z"
   id="path5" />
	<path
   d="m 39.687,61.136 c 1.208,1.208 2.847,1.887 4.554,1.887 1.707,0 3.346,-0.679 4.554,-1.887 L 71.86,38.07 c 2.516,-2.516 2.516,-6.594 0,-9.108 -2.516,-2.516 -6.592,-2.516 -9.108,0 L 50.683,41.032 V 11.984 c 0,-3.558 -2.885,-6.441 -6.441,-6.441 -3.556,0 -6.442,2.882 -6.442,6.441 V 41.032 L 25.731,28.962 c -2.516,-2.516 -6.592,-2.516 -9.108,0 -2.516,2.514 -2.516,6.592 0,9.108 l 23.064,23.066 z"
   id="path7" />
</g>
</svg>